<svg id="Layer_1" enable-background="new 0 0 512 512" height="512" viewBox="0 0 512 512" width="512" xmlns="http://www.w3.org/2000/svg"><g><path d="m440.238 7.68h-15.733c-9.459 0-17.126 7.668-17.126 17.126v30.272l3.969 3.857h42.878l3.139-3.857v-30.272c-.001-9.458-7.668-17.126-17.127-17.126z" fill="#f9f6f9"/><path d="m433.098 24.806c0-7.721 5.111-14.244 12.133-16.382-1.58-.481-3.255-.744-4.993-.744h-15.733c-9.459 0-17.126 7.668-17.126 17.126v30.272l3.969 3.857h25.719l-3.969-3.857z" fill="#cbe2ff"/><path d="m456.826 437.542h-50.236l-1.508 1.791 14.613 50.878c3.656 12.73 21.695 12.73 25.352 0l14.613-50.878z" fill="#8479c2"/><path d="m430.802 439.334 1.508-1.791h-25.719l-1.508 1.791 14.613 50.878c3.656 12.73 21.695 12.73 25.352 0l.184-.64z" fill="#6e60b8"/><path d="m461.583 258.102h-59.116l-.879 1.799v172.45c0 4.832 3.917 8.749 8.749 8.749h44.068c4.832 0 8.749-3.917 8.749-8.749v-172.45z" fill="#f9f6f9"/><path d="m427.308 432.351v-172.45l.879-1.799h-25.719l-.879 1.799v172.45c0 4.832 3.917 8.749 8.749 8.749h25.719c-4.832-.001-8.749-3.918-8.749-8.749z" fill="#cbe2ff"/><path d="m342.337 434.181h-342.337v38.529c0 17.385 14.225 31.61 31.61 31.61h309.281c4.563 0 8.297-3.734 8.297-8.297v-54.923z" fill="#f9f6f9"/><path d="m53.888 472.71v-38.529h-53.888v38.529c0 17.385 14.225 31.61 31.61 31.61h53.888c-17.385 0-31.61-14.225-31.61-31.61z" fill="#cbe2ff"/><path d="m337.222 7.68h-283.334l-10.428 11.929v421.49h305.728v-421.453c0-6.609-5.357-11.966-11.966-11.966z" fill="#ff636e"/><path d="m99.89 7.68h-46.002l-10.428 11.929v421.49h56.43z" fill="#ff4654"/><path d="m459.961 55.078h-55.179c-6.05 0-10.955 4.904-10.955 10.955v183.39c0 6.05 4.904 10.955 10.955 10.955h55.179c6.05 0 10.955-4.905 10.955-10.955v-183.39c0-6.05-4.905-10.955-10.955-10.955z" fill="#8479c2"/><path d="m419.547 249.422v-183.389c0-6.05 4.904-10.955 10.955-10.955h-25.719c-6.05 0-10.955 4.904-10.955 10.955v183.39c0 6.05 4.904 10.955 10.955 10.955h25.719c-6.051-.001-10.955-4.906-10.955-10.956z" fill="#6e60b8"/><g><path d="m504.389 263.611c-4.204 0-7.611-3.408-7.611-7.611v-157.809h-110.456c-4.204 0-7.611-3.408-7.611-7.611s3.408-7.611 7.611-7.611h118.067c4.204 0 7.611 3.408 7.611 7.611v165.42c0 4.204-3.408 7.611-7.611 7.611z" fill="#9790cc"/></g><path d="m53.888 7.68h-22.278c-17.385 0-31.61 14.225-31.61 31.61v433.42c0-17.386 14.225-31.61 31.61-31.61h22.278z" fill="#ff7f87"/><path d="m26.944 39.29c0-15.801 11.751-28.988 26.944-31.261v-.349h-22.278c-17.385 0-31.61 14.225-31.61 31.61v433.42c0-15.801 11.75-28.988 26.944-31.261z" fill="#ff636e"/><path d="m277.152 81.203h-166.099c-6.698 0-12.178 5.48-12.178 12.178v81.189c0 6.698 5.48 12.178 12.178 12.178h166.099l3.532-4.507v-96.666z" fill="#ff9ba1"/><path d="m143.335 174.57v-81.189c0-6.698 5.48-12.178 12.178-12.178h-44.461c-6.698 0-12.178 5.48-12.178 12.178v81.189c0 6.698 5.48 12.178 12.178 12.178h44.461c-6.697 0-12.178-5.48-12.178-12.178z" fill="#ff7f87"/><path d="m277.152 7.68h29.769v496.64h-29.769z" fill="#ffe07d"/><path d="m277.152 441.099h29.769v63.221h-29.769z" fill="#ffc250"/></g></svg>