<svg width="1280" height="720" viewBox="0 0 1280 720" fill="none" xmlns="http://www.w3.org/2000/svg">
<g clip-path="url(#clip0)">
<rect width="1280" height="720" fill="#4B5EB2"/>
<path fill-rule="evenodd" clip-rule="evenodd" d="M0 370L53.3333 415.37C106.667 460.741 213.333 551.481 320 557.963C426.667 564.444 533.333 486.667 640 486.667C746.667 486.667 853.333 564.444 960 577.407C1066.67 590.37 1173.33 538.519 1226.67 512.593L1280 486.667V720H1226.67C1173.33 720 1066.67 720 960 720C853.333 720 746.667 720 640 720C533.333 720 426.667 720 320 720C213.333 720 106.667 720 53.3333 720H0V370Z" fill="#5265B7"/>
<rect x="455" y="105" width="590" height="350" rx="20" fill="#FAFAFA" stroke="black" stroke-width="10"/>
<rect x="700" y="460" width="100" height="150" fill="black"/>
<rect x="575" y="570" width="350" height="40" rx="20" fill="black"/>
<path d="M460 125C460 116.716 466.716 110 475 110H1025C1033.28 110 1040 116.716 1040 125V140H460V125Z" fill="#343A40"/>
<g clip-path="url(#clip1)">
<path d="M588.363 115.3H587.749C587.379 115.3 587.08 115.6 587.08 115.969V117.151L587.235 117.302H588.91L589.032 117.151V115.969C589.032 115.6 588.733 115.3 588.363 115.3V115.3Z" fill="#F9F6F9"/>
<path d="M588.085 115.969C588.085 115.667 588.284 115.413 588.558 115.329C588.497 115.31 588.431 115.3 588.363 115.3H587.749C587.379 115.3 587.08 115.6 587.08 115.969V117.151L587.235 117.302H588.24L588.085 117.151V115.969Z" fill="#CBE2FF"/>
<path d="M589.011 132.091H587.049L586.99 132.161L587.561 134.149C587.704 134.646 588.408 134.646 588.551 134.149L589.122 132.161L589.011 132.091Z" fill="#8479C2"/>
<path d="M587.995 132.161L588.054 132.091H587.049L586.99 132.161L587.561 134.149C587.704 134.646 588.408 134.646 588.551 134.149L588.559 134.124L587.995 132.161Z" fill="#6E60B8"/>
<path d="M589.197 125.082H586.888L586.854 125.152V131.889C586.854 132.077 587.007 132.23 587.195 132.23H588.917C589.106 132.23 589.259 132.077 589.259 131.889V125.152L589.197 125.082Z" fill="#F9F6F9"/>
<path d="M587.858 131.889V125.152L587.893 125.082H586.888L586.854 125.152V131.889C586.854 132.077 587.007 132.23 587.195 132.23H588.2C588.011 132.23 587.858 132.077 587.858 131.889Z" fill="#CBE2FF"/>
<path d="M584.539 131.96H571.167V133.465C571.167 134.144 571.722 134.7 572.401 134.7H584.483C584.661 134.7 584.807 134.554 584.807 134.376V132.23L584.539 131.96Z" fill="#F9F6F9"/>
<path d="M573.272 133.465V131.96H571.167V133.465C571.167 134.144 571.722 134.7 572.401 134.7H574.506C573.827 134.7 573.272 134.144 573.272 133.465V133.465Z" fill="#CBE2FF"/>
<path d="M584.339 115.3H573.272L572.864 115.766V132.23H584.807V115.767C584.807 115.509 584.598 115.3 584.339 115.3V115.3Z" fill="#FF636E"/>
<path d="M575.069 115.3H573.272L572.864 115.766V132.23H575.069V115.3Z" fill="#FF4654"/>
<path d="M589.134 117.151H586.978C586.742 117.151 586.551 117.343 586.551 117.579V124.743C586.551 124.979 586.742 125.171 586.978 125.171H589.134C589.37 125.171 589.562 124.979 589.562 124.743V117.579C589.562 117.343 589.37 117.151 589.134 117.151V117.151Z" fill="#8479C2"/>
<path d="M587.555 124.743V117.579C587.555 117.343 587.747 117.151 587.983 117.151H586.978C586.742 117.151 586.551 117.343 586.551 117.579V124.743C586.551 124.979 586.742 125.171 586.978 125.171H587.983C587.747 125.171 587.555 124.979 587.555 124.743Z" fill="#6E60B8"/>
<path d="M590.869 125.297C590.705 125.297 590.572 125.164 590.572 125V118.836H586.257C586.093 118.836 585.96 118.702 585.96 118.538C585.96 118.374 586.093 118.241 586.257 118.241H590.869C591.034 118.241 591.167 118.374 591.167 118.538V125C591.167 125.164 591.034 125.297 590.869 125.297Z" fill="#9790CC"/>
<path d="M573.272 115.3H572.401C571.722 115.3 571.167 115.856 571.167 116.535V133.465C571.167 132.786 571.722 132.23 572.401 132.23H573.272V115.3Z" fill="#FF7F87"/>
<path d="M572.219 116.535C572.219 115.918 572.678 115.402 573.272 115.314V115.3H572.401C571.722 115.3 571.167 115.856 571.167 116.535V133.465C571.167 132.848 571.626 132.333 572.219 132.244V116.535Z" fill="#FF636E"/>
<path d="M581.993 118.172H575.505C575.243 118.172 575.029 118.386 575.029 118.648V121.819C575.029 122.081 575.243 122.295 575.505 122.295H581.993L582.131 122.119V118.343L581.993 118.172Z" fill="#FF9BA1"/>
<path d="M576.766 121.819V118.648C576.766 118.386 576.98 118.172 577.241 118.172H575.505C575.243 118.172 575.029 118.386 575.029 118.648V121.819C575.029 122.081 575.243 122.295 575.505 122.295H577.241C576.98 122.295 576.766 122.081 576.766 121.819Z" fill="#FF7F87"/>
<path d="M581.993 115.3H583.156V134.7H581.993V115.3Z" fill="#FFE07D"/>
<path d="M581.993 132.23H583.156V134.7H581.993V132.23Z" fill="#FFC250"/>
</g>
<rect x="601.375" y="118" width="48.3333" height="15" rx="7.5" fill="#9A9DA0"/>
<rect x="812.833" y="120" width="36.25" height="10" rx="5" fill="#9A9DA0"/>
<rect x="855.125" y="120" width="36.25" height="10" rx="5" fill="#9A9DA0"/>
<rect x="897.417" y="120" width="36.25" height="10" rx="5" fill="#9A9DA0"/>
<rect x="571" y="150" width="75" height="10" rx="5" fill="#6C757D"/>
<rect x="571" y="170" width="150" height="20" rx="10" fill="black"/>
<rect x="571.5" y="200.5" width="56.5168" height="29" rx="2.5" fill="#FAFAFA" stroke="#DFDFDF"/>
<path d="M571 203C571 201.343 572.343 200 574 200H574.58V230H574C572.343 230 571 228.657 571 227V203Z" fill="#4B5EB2"/>
<rect x="576.966" y="205" width="29.8323" height="7" rx="3.5" fill="#4B5EB2"/>
<rect x="576.966" y="217" width="47.7318" height="5" rx="2.5" fill="#4B5EB2"/>
<rect x="647.871" y="200.5" width="56.5168" height="29" rx="2.5" fill="#FAFAFA" stroke="#DFDFDF"/>
<path d="M647.371 203C647.371 201.343 648.714 200 650.371 200H650.951V230H650.371C648.714 230 647.371 228.657 647.371 227V203Z" fill="#FEDB60"/>
<rect x="653.337" y="205" width="29.8323" height="7" rx="3.5" fill="#FEDB60"/>
<rect x="653.337" y="217" width="47.7318" height="5" rx="2.5" fill="#FEDB60"/>
<rect x="724.242" y="200.5" width="56.5168" height="29" rx="2.5" fill="#FAFAFA" stroke="#DFDFDF"/>
<path d="M723.742 203C723.742 201.343 725.085 200 726.742 200H727.321V230H726.742C725.085 230 723.742 228.657 723.742 227V203Z" fill="#4B5EB2"/>
<rect x="729.708" y="205" width="29.8323" height="7" rx="3.5" fill="#4B5EB2"/>
<rect x="729.708" y="217" width="47.7318" height="5" rx="2.5" fill="#4B5EB2"/>
<rect x="800.612" y="200.5" width="56.5168" height="29" rx="2.5" fill="#FAFAFA" stroke="#DFDFDF"/>
<path d="M800.112 203C800.112 201.343 801.456 200 803.112 200H803.692V230H803.112C801.456 230 800.112 228.657 800.112 227V203Z" fill="#FEDB60"/>
<rect x="806.079" y="205" width="29.8323" height="7" rx="3.5" fill="#FEDB60"/>
<rect x="806.079" y="217" width="47.7318" height="5" rx="2.5" fill="#FEDB60"/>
<rect x="876.983" y="200.5" width="56.5168" height="29" rx="2.5" fill="#FAFAFA" stroke="#DFDFDF"/>
<path d="M876.483 203C876.483 201.343 877.826 200 879.483 200H880.063V230H879.483C877.826 230 876.483 228.657 876.483 227V203Z" fill="#4B5EB2"/>
<rect x="882.45" y="205" width="29.8323" height="7" rx="3.5" fill="#4B5EB2"/>
<rect x="882.45" y="217" width="47.7318" height="5" rx="2.5" fill="#4B5EB2"/>
<rect x="571.5" y="240.5" width="362" height="144" rx="4.5" fill="#EFEFEF" stroke="#DFDFDF"/>
<rect x="571.5" y="250.711" width="362" height="123.577" fill="#F7F7F7" stroke="#DFDFDF"/>
<rect x="594.882" y="241.021" width="37.0164" height="10.2113" fill="#FAFAFA"/>
<rect x="602.046" y="243.063" width="23.8816" height="7.14789" rx="3.57394" fill="#9A9DA0"/>
<rect x="634.286" y="243.063" width="23.8816" height="7.14789" rx="3.57394" fill="#9A9DA0"/>
<rect x="662.944" y="274.718" width="179.112" height="7.14789" rx="3.57394" fill="#9A9DA0"/>
<rect x="594.882" y="375.81" width="29.852" height="7.14789" rx="3.57394" fill="#4B5EB2"/>
<rect x="686.826" y="254.296" width="119.408" height="15.3169" rx="7.65845" fill="black"/>
<path d="M626.151 288.5H859.908C866.259 288.5 871.408 293.649 871.408 300V301C871.408 307.351 866.259 312.5 859.908 312.5H626.151C623.666 312.5 621.651 310.485 621.651 308V293C621.651 290.515 623.666 288.5 626.151 288.5Z" fill="#F7F7F7" stroke="#DFDFDF"/>
<path d="M618.763 293C618.763 290.239 621.002 288 623.763 288H624.763V313H623.763C621.002 313 618.763 310.761 618.763 308V293Z" fill="#343A40"/>
<rect x="853.997" y="298" width="5" height="5" fill="#EFF2F5"/>
<rect x="854.497" y="298.5" width="1.5" height="1.5" fill="#A5AAB3"/>
<rect x="854.647" y="298.65" width="0.45" height="0.45" fill="#707684"/>
<rect x="855.397" y="298.65" width="0.45" height="0.45" fill="#707684"/>
<rect x="855.397" y="299.4" width="0.45" height="0.45" fill="#707684"/>
<rect x="854.647" y="299.4" width="0.45" height="0.45" fill="#707684"/>
<rect x="856.997" y="298.5" width="1.5" height="1.5" fill="#A5AAB3"/>
<rect x="857.147" y="298.65" width="0.45" height="0.45" fill="#707684"/>
<rect x="857.897" y="298.65" width="0.45" height="0.45" fill="#707684"/>
<rect x="857.897" y="299.4" width="0.45" height="0.45" fill="#707684"/>
<rect x="857.147" y="299.4" width="0.45" height="0.45" fill="#707684"/>
<rect x="856.997" y="301" width="1.5" height="1.5" fill="#A5AAB3"/>
<rect x="857.147" y="301.15" width="0.45" height="0.45" fill="#707684"/>
<rect x="857.897" y="301.15" width="0.45" height="0.45" fill="#707684"/>
<rect x="857.897" y="301.9" width="0.45" height="0.45" fill="#707684"/>
<rect x="857.147" y="301.9" width="0.45" height="0.45" fill="#707684"/>
<rect x="854.497" y="301" width="1.5" height="1.5" fill="#A5AAB3"/>
<rect x="854.647" y="301.15" width="0.45" height="0.45" fill="#707684"/>
<rect x="855.397" y="301.15" width="0.45" height="0.45" fill="#707684"/>
<rect x="855.397" y="301.9" width="0.45" height="0.45" fill="#707684"/>
<rect x="854.647" y="301.9" width="0.45" height="0.45" fill="#707684"/>
<path d="M626.151 318.5H859.908C866.259 318.5 871.408 323.649 871.408 330V331C871.408 337.351 866.259 342.5 859.908 342.5H626.151C623.666 342.5 621.651 340.485 621.651 338V323C621.651 320.515 623.666 318.5 626.151 318.5Z" fill="#F7F7F7" stroke="#DFDFDF"/>
<path d="M618.763 323C618.763 320.239 621.002 318 623.763 318H624.763V343H623.763C621.002 343 618.763 340.761 618.763 338V323Z" fill="#343A40"/>
<rect x="853.997" y="328" width="5" height="5" fill="#EFF2F5"/>
<rect x="854.497" y="328.5" width="1.5" height="1.5" fill="#A5AAB3"/>
<rect x="854.647" y="328.65" width="0.45" height="0.45" fill="#707684"/>
<rect x="855.397" y="328.65" width="0.45" height="0.45" fill="#707684"/>
<rect x="855.397" y="329.4" width="0.45" height="0.45" fill="#707684"/>
<rect x="854.647" y="329.4" width="0.45" height="0.45" fill="#707684"/>
<rect x="856.997" y="328.5" width="1.5" height="1.5" fill="#A5AAB3"/>
<rect x="857.147" y="328.65" width="0.45" height="0.45" fill="#707684"/>
<rect x="857.897" y="328.65" width="0.45" height="0.45" fill="#707684"/>
<rect x="857.897" y="329.4" width="0.45" height="0.45" fill="#707684"/>
<rect x="857.147" y="329.4" width="0.45" height="0.45" fill="#707684"/>
<rect x="856.997" y="331" width="1.5" height="1.5" fill="#A5AAB3"/>
<rect x="857.147" y="331.15" width="0.45" height="0.45" fill="#707684"/>
<rect x="857.897" y="331.15" width="0.45" height="0.45" fill="#707684"/>
<rect x="857.897" y="331.9" width="0.45" height="0.45" fill="#707684"/>
<rect x="857.147" y="331.9" width="0.45" height="0.45" fill="#707684"/>
<rect x="854.497" y="331" width="1.5" height="1.5" fill="#A5AAB3"/>
<rect x="854.647" y="331.15" width="0.45" height="0.45" fill="#707684"/>
<rect x="855.397" y="331.15" width="0.45" height="0.45" fill="#707684"/>
<rect x="855.397" y="331.9" width="0.45" height="0.45" fill="#707684"/>
<rect x="854.647" y="331.9" width="0.45" height="0.45" fill="#707684"/>
<rect x="571.5" y="395.5" width="362" height="54" rx="4.5" fill="#EFEFEF" stroke="#DFDFDF"/>
<rect x="571.5" y="405.5" width="362" height="44" fill="#F7F7F7" stroke="#DFDFDF"/>
<rect x="594.882" y="396.021" width="37.0164" height="10.2113" fill="#FAFAFA"/>
<rect x="602.046" y="398.063" width="23.8816" height="7.14789" rx="3.57394" fill="#9A9DA0"/>
<rect x="634.286" y="398.063" width="23.8816" height="7.14789" rx="3.57394" fill="#9A9DA0"/>
<rect x="951.5" y="305.5" width="69" height="124" rx="4.5" fill="#FAFAFA" stroke="#DFDFDF"/>
<path d="M951 310C951 307.239 953.239 305 956 305H1016C1018.76 305 1021 307.239 1021 310V320H951V310Z" fill="#343A40"/>
<path d="M966.598 308.15H966.291C966.106 308.15 965.957 308.3 965.957 308.484V309.076L966.034 309.151H966.872L966.933 309.076V308.484C966.933 308.3 966.783 308.15 966.598 308.15V308.15Z" fill="#F9F6F9"/>
<path d="M966.459 308.484C966.459 308.334 966.559 308.206 966.696 308.165C966.665 308.155 966.632 308.15 966.598 308.15H966.291C966.106 308.15 965.957 308.3 965.957 308.484V309.076L966.034 309.151H966.536L966.459 309.076V308.484Z" fill="#CBE2FF"/>
<path d="M966.922 316.546H965.941L965.912 316.581L966.197 317.574C966.269 317.823 966.621 317.823 966.692 317.574L966.978 316.581L966.922 316.546Z" fill="#8479C2"/>
<path d="M966.414 316.581L966.444 316.546H965.941L965.912 316.581L966.197 317.574C966.269 317.823 966.621 317.823 966.692 317.574L966.696 317.562L966.414 316.581Z" fill="#6E60B8"/>
<path d="M967.015 313.041H965.861L965.844 313.076V316.444C965.844 316.539 965.92 316.615 966.014 316.615H966.875C966.969 316.615 967.046 316.539 967.046 316.444V313.076L967.015 313.041Z" fill="#F9F6F9"/>
<path d="M966.346 316.444V313.076L966.363 313.041H965.861L965.844 313.076V316.444C965.844 316.539 965.92 316.615 966.014 316.615H966.517C966.422 316.615 966.346 316.539 966.346 316.444Z" fill="#CBE2FF"/>
<path d="M964.686 316.48H958V317.233C958 317.572 958.278 317.85 958.617 317.85H964.658C964.747 317.85 964.82 317.777 964.82 317.688V316.615L964.686 316.48Z" fill="#F9F6F9"/>
<path d="M959.053 317.233V316.48H958V317.233C958 317.572 958.278 317.85 958.617 317.85H959.67C959.33 317.85 959.053 317.572 959.053 317.233V317.233Z" fill="#CBE2FF"/>
<path d="M964.586 308.15H959.053L958.849 308.383V316.615H964.82V308.384C964.82 308.255 964.715 308.15 964.586 308.15V308.15Z" fill="#FF636E"/>
<path d="M959.951 308.15H959.053L958.849 308.383V316.615H959.951V308.15Z" fill="#FF4654"/>
<path d="M966.984 309.076H965.906C965.788 309.076 965.692 309.172 965.692 309.29V312.872C965.692 312.99 965.788 313.086 965.906 313.086H966.984C967.102 313.086 967.198 312.99 967.198 312.872V309.29C967.198 309.172 967.102 309.076 966.984 309.076V309.076Z" fill="#8479C2"/>
<path d="M966.194 312.872V309.29C966.194 309.172 966.29 309.076 966.408 309.076H965.906C965.788 309.076 965.692 309.172 965.692 309.29V312.872C965.692 312.99 965.788 313.086 965.906 313.086H966.408C966.29 313.085 966.194 312.99 966.194 312.872Z" fill="#6E60B8"/>
<path d="M967.851 313.149C967.769 313.149 967.703 313.082 967.703 313V309.918H965.545C965.463 309.918 965.397 309.851 965.397 309.769C965.397 309.687 965.463 309.62 965.545 309.62H967.851C967.933 309.62 968 309.687 968 309.769V313C968 313.082 967.933 313.149 967.851 313.149Z" fill="#9790CC"/>
<path d="M959.053 308.15H958.617C958.278 308.15 958 308.428 958 308.767V317.233C958 316.893 958.278 316.615 958.617 316.615H959.053V308.15Z" fill="#FF7F87"/>
<path d="M958.526 308.767C958.526 308.459 958.756 308.201 959.053 308.157V308.15H958.617C958.278 308.15 958 308.428 958 308.767V317.233C958 316.924 958.229 316.666 958.526 316.622V308.767Z" fill="#FF636E"/>
<path d="M963.413 309.586H960.169C960.038 309.586 959.931 309.693 959.931 309.824V311.41C959.931 311.54 960.038 311.647 960.169 311.647H963.413L963.482 311.559V309.671L963.413 309.586Z" fill="#FF9BA1"/>
<path d="M960.8 311.41V309.824C960.8 309.693 960.907 309.586 961.037 309.586H960.169C960.038 309.586 959.931 309.693 959.931 309.824V311.41C959.931 311.54 960.038 311.647 960.169 311.647H961.037C960.907 311.647 960.8 311.54 960.8 311.41Z" fill="#FF7F87"/>
<path d="M963.413 308.15H963.995V317.85H963.413V308.15Z" fill="#FFE07D"/>
<path d="M963.413 316.615H963.995V317.85H963.413V316.615Z" fill="#FFC250"/>
<circle cx="966.5" cy="316.5" r="1.5" fill="#45CC58"/>
<path d="M951 415H1021V425C1021 427.761 1018.76 430 1016 430H956C953.239 430 951 427.761 951 425V415Z" fill="#DFDFDF"/>
<rect x="958" y="325" width="40" height="10" rx="5" fill="#4B5EB2"/>
<rect x="959" y="395" width="45" height="10" rx="5" fill="#4B5EB2"/>
<rect x="959" y="355" width="55" height="20" rx="5" fill="#4B5EB2"/>
<rect x="958" y="340" width="50" height="10" rx="5" fill="#FEDB60"/>
<rect x="959" y="380" width="55" height="10" rx="5" fill="#FEDB60"/>
<rect x="970.5" y="309" width="20" height="7" rx="3.5" fill="#9A9DA0"/>
<rect x="959" y="417" width="55" height="10" rx="5" fill="#FAFAFA"/>
<line x1="594.5" y1="406" x2="594.5" y2="450" stroke="#DFDFDF"/>
<line x1="584.5" y1="406" x2="584.5" y2="450" stroke="#DFDFDF"/>
<line x1="604.5" y1="406" x2="604.5" y2="450" stroke="#DFDFDF"/>
<line x1="614.5" y1="406" x2="614.5" y2="450" stroke="#DFDFDF"/>
<line x1="624.5" y1="406" x2="624.5" y2="450" stroke="#DFDFDF"/>
<line x1="634.5" y1="406" x2="634.5" y2="450" stroke="#DFDFDF"/>
<line x1="644.5" y1="406" x2="644.5" y2="450" stroke="#DFDFDF"/>
<line x1="654.5" y1="406" x2="654.5" y2="450" stroke="#DFDFDF"/>
<line x1="664.5" y1="406" x2="664.5" y2="450" stroke="#DFDFDF"/>
<line x1="674.5" y1="406" x2="674.5" y2="450" stroke="#DFDFDF"/>
<line x1="684.5" y1="406" x2="684.5" y2="450" stroke="#DFDFDF"/>
<line x1="694.5" y1="406" x2="694.5" y2="450" stroke="#DFDFDF"/>
<line x1="704.5" y1="406" x2="704.5" y2="450" stroke="#DFDFDF"/>
<line x1="714.5" y1="406" x2="714.5" y2="450" stroke="#DFDFDF"/>
<line x1="724.5" y1="406" x2="724.5" y2="450" stroke="#DFDFDF"/>
<line x1="734.5" y1="406" x2="734.5" y2="450" stroke="#DFDFDF"/>
<line x1="744.5" y1="406" x2="744.5" y2="450" stroke="#DFDFDF"/>
<line x1="754.5" y1="406" x2="754.5" y2="450" stroke="#DFDFDF"/>
<line x1="764.5" y1="406" x2="764.5" y2="450" stroke="#DFDFDF"/>
<line x1="774.5" y1="406" x2="774.5" y2="450" stroke="#DFDFDF"/>
<line x1="784.5" y1="406" x2="784.5" y2="450" stroke="#DFDFDF"/>
<line x1="794.5" y1="406" x2="794.5" y2="450" stroke="#DFDFDF"/>
<line x1="804.5" y1="406" x2="804.5" y2="450" stroke="#DFDFDF"/>
<line x1="814.5" y1="406" x2="814.5" y2="450" stroke="#DFDFDF"/>
<line x1="824.5" y1="406" x2="824.5" y2="450" stroke="#DFDFDF"/>
<line x1="834.5" y1="406" x2="834.5" y2="450" stroke="#DFDFDF"/>
<line x1="844.5" y1="406" x2="844.5" y2="450" stroke="#DFDFDF"/>
<line x1="854.5" y1="406" x2="854.5" y2="450" stroke="#DFDFDF"/>
<line x1="864.5" y1="406" x2="864.5" y2="450" stroke="#DFDFDF"/>
<line x1="874.5" y1="406" x2="874.5" y2="450" stroke="#DFDFDF"/>
<line x1="884.5" y1="406" x2="884.5" y2="450" stroke="#DFDFDF"/>
<line x1="894.5" y1="406" x2="894.5" y2="450" stroke="#DFDFDF"/>
<line x1="904.5" y1="406" x2="904.5" y2="450" stroke="#DFDFDF"/>
<line x1="914.5" y1="406" x2="914.5" y2="450" stroke="#DFDFDF"/>
<line x1="924.5" y1="406" x2="924.5" y2="450" stroke="#DFDFDF"/>
<line x1="595" y1="405.5" x2="632" y2="405.5" stroke="#DFDFDF"/>
<line x1="571" y1="415.5" x2="934" y2="415.5" stroke="#DFDFDF"/>
<line x1="571" y1="425.5" x2="934" y2="425.5" stroke="#DFDFDF"/>
<line x1="571" y1="435.5" x2="934" y2="435.5" stroke="#DFDFDF"/>
<line x1="571" y1="445.5" x2="934" y2="445.5" stroke="#DFDFDF"/>
<path fill-rule="evenodd" clip-rule="evenodd" d="M572 410.604L575.008 411.425C577.716 412.246 583.432 413.887 589.148 420.453C594.863 427.019 600.579 438.51 606.295 440.972C612.011 443.434 617.727 436.868 623.442 428.661C629.158 420.453 635.175 410.604 640.891 407.321C646.607 404.039 652.323 407.321 658.038 412.246C663.754 417.17 669.47 423.736 675.186 424.557C680.902 425.378 686.618 420.453 692.333 419.633C698.049 418.812 703.765 422.095 709.481 427.019C715.197 431.944 720.913 438.51 726.628 440.972C732.344 443.434 738.06 441.793 743.776 437.689C749.492 433.585 755.508 427.019 761.224 425.378C766.94 423.736 772.656 427.019 778.372 431.944C784.087 436.868 789.803 443.434 795.519 443.434C801.235 443.434 806.951 436.868 812.667 431.123C818.383 425.378 824.098 420.453 829.814 416.35C835.53 412.246 841.246 408.963 846.962 407.321C852.678 405.68 858.393 405.68 864.109 411.425C869.825 417.17 875.842 428.661 881.558 428.661C887.273 428.661 892.989 417.17 898.705 413.067C904.421 408.963 910.137 412.246 915.853 419.633C921.568 427.019 927.284 438.51 929.992 444.255L933 450H929.992C927.284 450 921.568 450 915.853 450C910.137 450 904.421 450 898.705 450C892.989 450 887.273 450 881.558 450C875.842 450 869.825 450 864.109 450C858.393 450 852.678 450 846.962 450C841.246 450 835.53 450 829.814 450C824.098 450 818.383 450 812.667 450C806.951 450 801.235 450 795.519 450C789.803 450 784.087 450 778.372 450C772.656 450 766.94 450 761.224 450C755.508 450 749.492 450 743.776 450C738.06 450 732.344 450 726.628 450C720.913 450 715.197 450 709.481 450C703.765 450 698.049 450 692.333 450C686.618 450 680.902 450 675.186 450C669.47 450 663.754 450 658.038 450C652.323 450 646.607 450 640.891 450C635.175 450 629.158 450 623.442 450C617.727 450 612.011 450 606.295 450C600.579 450 594.863 450 589.148 450C583.432 450 577.716 450 575.008 450H572V410.604Z" fill="#4B5EB2"/>
<rect x="755" y="339" width="490" height="290" rx="20" fill="#FAFAFA" stroke="black" stroke-width="10"/>
<rect x="727" y="630" width="550" height="25" rx="12.5" fill="black"/>
<path d="M760 359C760 350.716 766.716 344 775 344H1225C1233.28 344 1240 350.716 1240 359V374H760V359Z" fill="#343A40"/>
<path d="M869.197 349.3H868.582C868.213 349.3 867.913 349.6 867.913 349.969V351.152L868.068 351.302H869.743L869.866 351.152V349.969C869.866 349.6 869.566 349.3 869.197 349.3V349.3Z" fill="#F9F6F9"/>
<path d="M868.918 349.969C868.918 349.667 869.118 349.413 869.392 349.329C869.33 349.31 869.265 349.3 869.197 349.3H868.582C868.213 349.3 867.913 349.6 867.913 349.969V351.152L868.068 351.302H869.073L868.918 351.152V349.969Z" fill="#CBE2FF"/>
<path d="M869.845 366.092H867.882L867.824 366.161L868.394 368.149C868.537 368.646 869.242 368.646 869.385 368.149L869.955 366.161L869.845 366.092Z" fill="#8479C2"/>
<path d="M868.828 366.161L868.887 366.092H867.882L867.824 366.161L868.394 368.149C868.537 368.646 869.242 368.646 869.385 368.149L869.392 368.124L868.828 366.161Z" fill="#6E60B8"/>
<path d="M870.031 359.082H867.721L867.687 359.152V365.889C867.687 366.077 867.84 366.23 868.029 366.23H869.75C869.939 366.23 870.092 366.077 870.092 365.889V359.152L870.031 359.082Z" fill="#F9F6F9"/>
<path d="M868.692 365.889V359.152L868.726 359.082H867.721L867.687 359.152V365.889C867.687 366.077 867.84 366.23 868.029 366.23H869.033C868.845 366.23 868.692 366.077 868.692 365.889Z" fill="#CBE2FF"/>
<path d="M865.373 365.96H852V367.465C852 368.144 852.556 368.7 853.235 368.7H865.316C865.494 368.7 865.64 368.554 865.64 368.376V366.23L865.373 365.96Z" fill="#F9F6F9"/>
<path d="M854.105 367.465V365.96H852V367.465C852 368.144 852.556 368.7 853.235 368.7H855.34C854.661 368.7 854.105 368.144 854.105 367.465V367.465Z" fill="#CBE2FF"/>
<path d="M865.173 349.3H854.105L853.698 349.766V366.23H865.64V349.767C865.64 349.509 865.431 349.3 865.173 349.3V349.3Z" fill="#FF636E"/>
<path d="M855.902 349.3H854.105L853.698 349.766V366.23H855.902V349.3Z" fill="#FF4654"/>
<path d="M869.967 351.151H867.812C867.575 351.151 867.384 351.343 867.384 351.579V358.743C867.384 358.979 867.575 359.171 867.812 359.171H869.967C870.204 359.171 870.395 358.979 870.395 358.743V351.579C870.395 351.343 870.204 351.151 869.967 351.151V351.151Z" fill="#8479C2"/>
<path d="M868.389 358.743V351.579C868.389 351.343 868.58 351.151 868.816 351.151H867.812C867.576 351.151 867.384 351.343 867.384 351.579V358.743C867.384 358.979 867.575 359.171 867.812 359.171H868.816C868.58 359.171 868.389 358.979 868.389 358.743Z" fill="#6E60B8"/>
<path d="M871.703 359.297C871.538 359.297 871.405 359.164 871.405 359V352.836H867.091C866.926 352.836 866.793 352.702 866.793 352.538C866.793 352.374 866.927 352.241 867.091 352.241H871.703C871.867 352.241 872 352.374 872 352.538V359C872 359.164 871.867 359.297 871.703 359.297Z" fill="#9790CC"/>
<path d="M854.105 349.3H853.235C852.556 349.3 852 349.856 852 350.535V367.465C852 366.786 852.556 366.23 853.235 366.23H854.105V349.3Z" fill="#FF7F87"/>
<path d="M853.053 350.535C853.053 349.918 853.512 349.402 854.105 349.314V349.3H853.235C852.556 349.3 852 349.856 852 350.535V367.465C852 366.848 852.459 366.333 853.053 366.244V350.535Z" fill="#FF636E"/>
<path d="M862.826 352.172H856.338C856.076 352.172 855.862 352.386 855.862 352.648V355.819C855.862 356.081 856.076 356.295 856.338 356.295H862.826L862.964 356.119V352.343L862.826 352.172Z" fill="#FF9BA1"/>
<path d="M857.599 355.819V352.648C857.599 352.386 857.813 352.172 858.075 352.172H856.338C856.076 352.172 855.862 352.386 855.862 352.648V355.819C855.862 356.081 856.076 356.295 856.338 356.295H858.075C857.813 356.295 857.599 356.081 857.599 355.819Z" fill="#FF7F87"/>
<path d="M862.826 349.3H863.989V368.7H862.826V349.3Z" fill="#FFE07D"/>
<path d="M862.826 366.23H863.989V368.7H862.826V366.23Z" fill="#FFC250"/>
<rect x="877" y="352" width="40" height="15" rx="7.5" fill="#9A9DA0"/>
<rect x="1052" y="354" width="30" height="10" rx="5" fill="#9A9DA0"/>
<rect x="1087" y="354" width="30" height="10" rx="5" fill="#9A9DA0"/>
<rect x="1122" y="354" width="30" height="10" rx="5" fill="#9A9DA0"/>
<rect x="852" y="380" width="75" height="10" rx="5" fill="#6C757D"/>
<rect x="852" y="400" width="150" height="20" rx="10" fill="black"/>
<rect x="853.5" y="430.5" width="47.2" height="29" rx="2.5" fill="#FAFAFA" stroke="#DFDFDF"/>
<path d="M853 433C853 431.343 854.343 430 856 430V430V460V460C854.343 460 853 458.657 853 457V433Z" fill="#4B5EB2"/>
<rect x="858" y="435" width="25" height="7" rx="3.5" fill="#4B5EB2"/>
<rect x="858" y="447" width="40" height="5" rx="2.5" fill="#4B5EB2"/>
<rect x="917.5" y="430.5" width="47.2" height="29" rx="2.5" fill="#FAFAFA" stroke="#DFDFDF"/>
<path d="M917 433C917 431.343 918.343 430 920 430V430V460V460C918.343 460 917 458.657 917 457V433Z" fill="#FEDB60"/>
<rect x="922" y="435" width="25" height="7" rx="3.5" fill="#FEDB60"/>
<rect x="922" y="447" width="40" height="5" rx="2.5" fill="#FEDB60"/>
<rect x="981.5" y="430.5" width="47.2" height="29" rx="2.5" fill="#FAFAFA" stroke="#DFDFDF"/>
<path d="M981 433C981 431.343 982.343 430 984 430V430V460V460C982.343 460 981 458.657 981 457V433Z" fill="#4B5EB2"/>
<rect x="986" y="435" width="25" height="7" rx="3.5" fill="#4B5EB2"/>
<rect x="986" y="447" width="40" height="5" rx="2.5" fill="#4B5EB2"/>
<rect x="1045.5" y="430.5" width="47.2" height="29" rx="2.5" fill="#FAFAFA" stroke="#DFDFDF"/>
<path d="M1045 433C1045 431.343 1046.34 430 1048 430V430V460V460C1046.34 460 1045 458.657 1045 457V433Z" fill="#FEDB60"/>
<rect x="1050" y="435" width="25" height="7" rx="3.5" fill="#FEDB60"/>
<rect x="1050" y="447" width="40" height="5" rx="2.5" fill="#FEDB60"/>
<rect x="1109.5" y="430.5" width="47.2" height="29" rx="2.5" fill="#FAFAFA" stroke="#DFDFDF"/>
<path d="M1109 433C1109 431.343 1110.34 430 1112 430V430V460V460C1110.34 460 1109 458.657 1109 457V433Z" fill="#4B5EB2"/>
<rect x="1114" y="435" width="25" height="7" rx="3.5" fill="#4B5EB2"/>
<rect x="1114" y="447" width="40" height="5" rx="2.5" fill="#4B5EB2"/>
<rect x="1160.5" y="490.5" width="69" height="124" rx="4.5" fill="#FAFAFA" stroke="#DFDFDF"/>
<path d="M1160 495C1160 492.239 1162.24 490 1165 490H1225C1227.76 490 1230 492.239 1230 495V505H1160V495Z" fill="#343A40"/>
<path d="M1175.6 493.15H1175.29C1175.11 493.15 1174.96 493.3 1174.96 493.484V494.076L1175.03 494.151H1175.87L1175.93 494.076V493.484C1175.93 493.3 1175.78 493.15 1175.6 493.15V493.15Z" fill="#F9F6F9"/>
<path d="M1175.46 493.484C1175.46 493.334 1175.56 493.206 1175.7 493.165C1175.67 493.155 1175.63 493.15 1175.6 493.15H1175.29C1175.11 493.15 1174.96 493.3 1174.96 493.484V494.076L1175.03 494.151H1175.54L1175.46 494.076V493.484Z" fill="#CBE2FF"/>
<path d="M1175.92 501.546H1174.94L1174.91 501.581L1175.2 502.574C1175.27 502.823 1175.62 502.823 1175.69 502.574L1175.98 501.581L1175.92 501.546Z" fill="#8479C2"/>
<path d="M1175.41 501.581L1175.44 501.546H1174.94L1174.91 501.581L1175.2 502.574C1175.27 502.823 1175.62 502.823 1175.69 502.574L1175.7 502.562L1175.41 501.581Z" fill="#6E60B8"/>
<path d="M1176.02 498.041H1174.86L1174.84 498.076V501.444C1174.84 501.539 1174.92 501.615 1175.01 501.615H1175.88C1175.97 501.615 1176.05 501.539 1176.05 501.444V498.076L1176.02 498.041Z" fill="#F9F6F9"/>
<path d="M1175.35 501.444V498.076L1175.36 498.041H1174.86L1174.84 498.076V501.444C1174.84 501.539 1174.92 501.615 1175.01 501.615H1175.52C1175.42 501.615 1175.35 501.539 1175.35 501.444Z" fill="#CBE2FF"/>
<path d="M1173.69 501.48H1167V502.233C1167 502.572 1167.28 502.85 1167.62 502.85H1173.66C1173.75 502.85 1173.82 502.777 1173.82 502.688V501.615L1173.69 501.48Z" fill="#F9F6F9"/>
<path d="M1168.05 502.233V501.48H1167V502.233C1167 502.572 1167.28 502.85 1167.62 502.85H1168.67C1168.33 502.85 1168.05 502.572 1168.05 502.233V502.233Z" fill="#CBE2FF"/>
<path d="M1173.59 493.15H1168.05L1167.85 493.383V501.615H1173.82V493.384C1173.82 493.255 1173.72 493.15 1173.59 493.15V493.15Z" fill="#FF636E"/>
<path d="M1168.95 493.15H1168.05L1167.85 493.383V501.615H1168.95V493.15Z" fill="#FF4654"/>
<path d="M1175.98 494.076H1174.91C1174.79 494.076 1174.69 494.172 1174.69 494.29V497.872C1174.69 497.99 1174.79 498.086 1174.91 498.086H1175.98C1176.1 498.086 1176.2 497.99 1176.2 497.872V494.29C1176.2 494.172 1176.1 494.076 1175.98 494.076V494.076Z" fill="#8479C2"/>
<path d="M1175.19 497.872V494.29C1175.19 494.172 1175.29 494.076 1175.41 494.076H1174.91C1174.79 494.076 1174.69 494.172 1174.69 494.29V497.872C1174.69 497.99 1174.79 498.086 1174.91 498.086H1175.41C1175.29 498.085 1175.19 497.99 1175.19 497.872Z" fill="#6E60B8"/>
<path d="M1176.85 498.149C1176.77 498.149 1176.7 498.082 1176.7 498V494.918H1174.55C1174.46 494.918 1174.4 494.851 1174.4 494.769C1174.4 494.687 1174.46 494.62 1174.55 494.62H1176.85C1176.93 494.62 1177 494.687 1177 494.769V498C1177 498.082 1176.93 498.149 1176.85 498.149Z" fill="#9790CC"/>
<path d="M1168.05 493.15H1167.62C1167.28 493.15 1167 493.428 1167 493.767V502.233C1167 501.893 1167.28 501.615 1167.62 501.615H1168.05V493.15Z" fill="#FF7F87"/>
<path d="M1167.53 493.767C1167.53 493.459 1167.76 493.201 1168.05 493.157V493.15H1167.62C1167.28 493.15 1167 493.428 1167 493.767V502.233C1167 501.924 1167.23 501.666 1167.53 501.622V493.767Z" fill="#FF636E"/>
<path d="M1172.41 494.586H1169.17C1169.04 494.586 1168.93 494.693 1168.93 494.824V496.41C1168.93 496.54 1169.04 496.647 1169.17 496.647H1172.41L1172.48 496.559V494.671L1172.41 494.586Z" fill="#FF9BA1"/>
<path d="M1169.8 496.41V494.824C1169.8 494.693 1169.91 494.586 1170.04 494.586H1169.17C1169.04 494.586 1168.93 494.693 1168.93 494.824V496.41C1168.93 496.54 1169.04 496.647 1169.17 496.647H1170.04C1169.91 496.647 1169.8 496.54 1169.8 496.41Z" fill="#FF7F87"/>
<path d="M1172.41 493.15H1172.99V502.85H1172.41V493.15Z" fill="#FFE07D"/>
<path d="M1172.41 501.615H1172.99V502.85H1172.41V501.615Z" fill="#FFC250"/>
<circle cx="1175.5" cy="501.5" r="1.5" fill="#45CC58"/>
<path d="M1160 600H1230V610C1230 612.761 1227.76 615 1225 615H1165C1162.24 615 1160 612.761 1160 610V600Z" fill="#DFDFDF"/>
<rect x="1167" y="510" width="40" height="10" rx="5" fill="#4B5EB2"/>
<rect x="1168" y="580" width="45" height="10" rx="5" fill="#4B5EB2"/>
<rect x="1168" y="540" width="55" height="20" rx="5" fill="#4B5EB2"/>
<rect x="1167" y="525" width="50" height="10" rx="5" fill="#FEDB60"/>
<rect x="1168" y="565" width="55" height="10" rx="5" fill="#FEDB60"/>
<rect x="1179.5" y="494" width="20" height="7" rx="3.5" fill="#9A9DA0"/>
<rect x="1168" y="602" width="55" height="10" rx="5" fill="#FAFAFA"/>
<rect x="853.5" y="470.5" width="303" height="144" rx="4.5" fill="#EFEFEF" stroke="#DFDFDF"/>
<rect x="853.5" y="480.711" width="303" height="123.577" fill="#F7F7F7" stroke="#DFDFDF"/>
<rect x="873" y="471.021" width="31" height="10.2113" fill="#FAFAFA"/>
<rect x="879" y="473.063" width="20" height="7.14789" rx="3.57394" fill="#9A9DA0"/>
<rect x="906" y="473.063" width="20" height="7.14789" rx="3.57394" fill="#9A9DA0"/>
<rect x="930" y="504.718" width="150" height="7.14789" rx="3.57394" fill="#9A9DA0"/>
<rect x="873" y="605.81" width="25" height="7.14789" rx="3.57394" fill="#4B5EB2"/>
<rect x="950" y="484.296" width="100" height="15.3169" rx="7.65845" fill="black"/>
<path d="M900 518.5H1093C1099.35 518.5 1104.5 523.649 1104.5 530V531C1104.5 537.351 1099.35 542.5 1093 542.5H900C897.515 542.5 895.5 540.485 895.5 538V523C895.5 520.515 897.515 518.5 900 518.5Z" fill="#F7F7F7" stroke="#DFDFDF"/>
<path d="M893 523C893 520.239 895.239 518 898 518H899V543H898C895.239 543 893 540.761 893 538V523Z" fill="#343A40"/>
<rect x="1090" y="528" width="5" height="5" fill="#EFF2F5"/>
<rect x="1090.5" y="528.5" width="1.5" height="1.5" fill="#A5AAB3"/>
<rect x="1090.65" y="528.65" width="0.45" height="0.45" fill="#707684"/>
<rect x="1091.4" y="528.65" width="0.45" height="0.45" fill="#707684"/>
<rect x="1091.4" y="529.4" width="0.45" height="0.45" fill="#707684"/>
<rect x="1090.65" y="529.4" width="0.45" height="0.45" fill="#707684"/>
<rect x="1093" y="528.5" width="1.5" height="1.5" fill="#A5AAB3"/>
<rect x="1093.15" y="528.65" width="0.45" height="0.45" fill="#707684"/>
<rect x="1093.9" y="528.65" width="0.45" height="0.45" fill="#707684"/>
<rect x="1093.9" y="529.4" width="0.45" height="0.45" fill="#707684"/>
<rect x="1093.15" y="529.4" width="0.45" height="0.45" fill="#707684"/>
<rect x="1093" y="531" width="1.5" height="1.5" fill="#A5AAB3"/>
<rect x="1093.15" y="531.15" width="0.45" height="0.45" fill="#707684"/>
<rect x="1093.9" y="531.15" width="0.45" height="0.45" fill="#707684"/>
<rect x="1093.9" y="531.9" width="0.45" height="0.45" fill="#707684"/>
<rect x="1093.15" y="531.9" width="0.45" height="0.45" fill="#707684"/>
<rect x="1090.5" y="531" width="1.5" height="1.5" fill="#A5AAB3"/>
<rect x="1090.65" y="531.15" width="0.45" height="0.45" fill="#707684"/>
<rect x="1091.4" y="531.15" width="0.45" height="0.45" fill="#707684"/>
<rect x="1091.4" y="531.9" width="0.45" height="0.45" fill="#707684"/>
<rect x="1090.65" y="531.9" width="0.45" height="0.45" fill="#707684"/>
<path d="M900 548.5H1093C1099.35 548.5 1104.5 553.649 1104.5 560V561C1104.5 567.351 1099.35 572.5 1093 572.5H900C897.515 572.5 895.5 570.485 895.5 568V553C895.5 550.515 897.515 548.5 900 548.5Z" fill="#F7F7F7" stroke="#DFDFDF"/>
<path d="M893 553C893 550.239 895.239 548 898 548H899V573H898C895.239 573 893 570.761 893 568V553Z" fill="#343A40"/>
<rect x="1090" y="558" width="5" height="5" fill="#EFF2F5"/>
<rect x="1090.5" y="558.5" width="1.5" height="1.5" fill="#A5AAB3"/>
<rect x="1090.65" y="558.65" width="0.45" height="0.45" fill="#707684"/>
<rect x="1091.4" y="558.65" width="0.45" height="0.45" fill="#707684"/>
<rect x="1091.4" y="559.4" width="0.45" height="0.45" fill="#707684"/>
<rect x="1090.65" y="559.4" width="0.45" height="0.45" fill="#707684"/>
<rect x="1093" y="558.5" width="1.5" height="1.5" fill="#A5AAB3"/>
<rect x="1093.15" y="558.65" width="0.45" height="0.45" fill="#707684"/>
<rect x="1093.9" y="558.65" width="0.45" height="0.45" fill="#707684"/>
<rect x="1093.9" y="559.4" width="0.45" height="0.45" fill="#707684"/>
<rect x="1093.15" y="559.4" width="0.45" height="0.45" fill="#707684"/>
<rect x="1093" y="561" width="1.5" height="1.5" fill="#A5AAB3"/>
<rect x="1093.15" y="561.15" width="0.45" height="0.45" fill="#707684"/>
<rect x="1093.9" y="561.15" width="0.45" height="0.45" fill="#707684"/>
<rect x="1093.9" y="561.9" width="0.45" height="0.45" fill="#707684"/>
<rect x="1093.15" y="561.9" width="0.45" height="0.45" fill="#707684"/>
<rect x="1090.5" y="561" width="1.5" height="1.5" fill="#A5AAB3"/>
<rect x="1090.65" y="561.15" width="0.45" height="0.45" fill="#707684"/>
<rect x="1091.4" y="561.15" width="0.45" height="0.45" fill="#707684"/>
<rect x="1091.4" y="561.9" width="0.45" height="0.45" fill="#707684"/>
<rect x="1090.65" y="561.9" width="0.45" height="0.45" fill="#707684"/>
<rect x="510.5" y="485.5" width="95" height="170" rx="7.5" fill="#FAFAFA" stroke="black" stroke-width="5"/>
<path d="M513 493C513 490.239 515.239 488 518 488H598C600.761 488 603 490.239 603 493V503H513V493Z" fill="#343A40"/>
<path d="M538.598 490.15H538.291C538.106 490.15 537.957 490.3 537.957 490.485V491.076L538.034 491.151H538.872L538.933 491.076V490.485C538.933 490.3 538.783 490.15 538.598 490.15V490.15Z" fill="#F9F6F9"/>
<path d="M538.459 490.485C538.459 490.334 538.559 490.206 538.696 490.165C538.665 490.155 538.632 490.15 538.598 490.15H538.291C538.106 490.15 537.957 490.3 537.957 490.485V491.076L538.034 491.151H538.536L538.459 491.076V490.485Z" fill="#CBE2FF"/>
<path d="M538.922 498.546H537.941L537.912 498.581L538.197 499.574C538.269 499.823 538.621 499.823 538.692 499.574L538.978 498.581L538.922 498.546Z" fill="#8479C2"/>
<path d="M538.414 498.581L538.444 498.546H537.941L537.912 498.581L538.197 499.574C538.269 499.823 538.621 499.823 538.692 499.574L538.696 499.562L538.414 498.581Z" fill="#6E60B8"/>
<path d="M539.015 495.041H537.861L537.844 495.076V498.444C537.844 498.539 537.92 498.615 538.014 498.615H538.875C538.969 498.615 539.046 498.539 539.046 498.444V495.076L539.015 495.041Z" fill="#F9F6F9"/>
<path d="M538.346 498.444V495.076L538.363 495.041H537.861L537.844 495.076V498.444C537.844 498.539 537.92 498.615 538.014 498.615H538.517C538.422 498.615 538.346 498.539 538.346 498.444Z" fill="#CBE2FF"/>
<path d="M536.686 498.48H530V499.233C530 499.572 530.278 499.85 530.617 499.85H536.658C536.747 499.85 536.82 499.777 536.82 499.688V498.615L536.686 498.48Z" fill="#F9F6F9"/>
<path d="M531.053 499.233V498.48H530V499.233C530 499.572 530.278 499.85 530.617 499.85H531.67C531.33 499.85 531.053 499.572 531.053 499.233V499.233Z" fill="#CBE2FF"/>
<path d="M536.586 490.15H531.053L530.849 490.383V498.615H536.82V490.384C536.82 490.255 536.715 490.15 536.586 490.15V490.15Z" fill="#FF636E"/>
<path d="M531.951 490.15H531.053L530.849 490.383V498.615H531.951V490.15Z" fill="#FF4654"/>
<path d="M538.984 491.076H537.906C537.788 491.076 537.692 491.172 537.692 491.29V494.872C537.692 494.99 537.788 495.086 537.906 495.086H538.984C539.102 495.086 539.198 494.99 539.198 494.872V491.29C539.198 491.172 539.102 491.076 538.984 491.076V491.076Z" fill="#8479C2"/>
<path d="M538.194 494.872V491.29C538.194 491.172 538.29 491.076 538.408 491.076H537.906C537.788 491.076 537.692 491.172 537.692 491.29V494.872C537.692 494.99 537.788 495.086 537.906 495.086H538.408C538.29 495.085 538.194 494.99 538.194 494.872Z" fill="#6E60B8"/>
<path d="M539.851 495.149C539.769 495.149 539.703 495.082 539.703 495V491.918H537.545C537.463 491.918 537.397 491.851 537.397 491.769C537.397 491.687 537.463 491.62 537.545 491.62H539.851C539.933 491.62 540 491.687 540 491.769V495C540 495.082 539.933 495.149 539.851 495.149Z" fill="#9790CC"/>
<path d="M531.053 490.15H530.617C530.278 490.15 530 490.428 530 490.767V499.233C530 498.893 530.278 498.615 530.617 498.615H531.053V490.15Z" fill="#FF7F87"/>
<path d="M530.526 490.767C530.526 490.459 530.756 490.201 531.053 490.157V490.15H530.617C530.278 490.15 530 490.428 530 490.767V499.233C530 498.924 530.229 498.666 530.526 498.622V490.767Z" fill="#FF636E"/>
<path d="M535.413 491.586H532.169C532.038 491.586 531.931 491.693 531.931 491.824V493.41C531.931 493.54 532.038 493.647 532.169 493.647H535.413L535.482 493.559V491.671L535.413 491.586Z" fill="#FF9BA1"/>
<path d="M532.8 493.41V491.824C532.8 491.693 532.907 491.586 533.037 491.586H532.169C532.038 491.586 531.931 491.693 531.931 491.824V493.41C531.931 493.54 532.038 493.647 532.169 493.647H533.037C532.907 493.647 532.8 493.54 532.8 493.41Z" fill="#FF7F87"/>
<path d="M535.413 490.15H535.995V499.85H535.413V490.15Z" fill="#FFE07D"/>
<path d="M535.413 498.615H535.995V499.85H535.413V498.615Z" fill="#FFC250"/>
<path d="M580 491H590" stroke="#FAFAFA"/>
<path d="M580 495H590" stroke="#FAFAFA"/>
<path d="M580 499H590" stroke="#FAFAFA"/>
<rect x="530" y="508" width="20" height="7.14789" rx="3.57394" fill="#9A9DA0"/>
<rect x="530" y="520" width="50" height="10" rx="5" fill="black"/>
<rect x="530.5" y="535.5" width="49" height="29" rx="2.5" fill="#FAFAFA" stroke="#DFDFDF"/>
<path d="M530 538C530 536.343 531.343 535 533 535H533.112V565H533C531.343 565 530 563.657 530 562V538Z" fill="#4B5EB2"/>
<rect x="535.187" y="540" width="25.9336" height="7" rx="3.5" fill="#4B5EB2"/>
<rect x="535.187" y="552" width="41.4938" height="5" rx="2.5" fill="#4B5EB2"/>
<rect x="530.5" y="570.5" width="49" height="29" rx="2.5" fill="#FAFAFA" stroke="#DFDFDF"/>
<path d="M530 573C530 571.343 531.343 570 533 570H533.112V600H533C531.343 600 530 598.657 530 597V573Z" fill="#FEDB60"/>
<rect x="535.187" y="575" width="25.9336" height="7" rx="3.5" fill="#FEDB60"/>
<rect x="535.187" y="587" width="41.4938" height="5" rx="2.5" fill="#FEDB60"/>
<rect x="530.5" y="605.5" width="49" height="29" rx="2.5" fill="#FAFAFA" stroke="#DFDFDF"/>
<path d="M530 608C530 606.343 531.343 605 533 605H533.112V635H533C531.343 635 530 633.657 530 632V608Z" fill="#4B5EB2"/>
<rect x="535.187" y="610" width="25.9336" height="7" rx="3.5" fill="#4B5EB2"/>
<rect x="535.187" y="622" width="41.4938" height="5" rx="2.5" fill="#4B5EB2"/>
<path d="M196.5 207.453H166.922V231.641H201.281V239H157.922V170.75H200.812V178.156H166.922V200.094H196.5V207.453ZM241.594 233.984C238.219 237.953 233.266 239.938 226.734 239.938C221.328 239.938 217.203 238.375 214.359 235.25C211.547 232.094 210.125 227.438 210.094 221.281V188.281H218.766V221.047C218.766 228.734 221.891 232.578 228.141 232.578C234.766 232.578 239.172 230.109 241.359 225.172V188.281H250.031V239H241.781L241.594 233.984ZM279.984 227.234L292.547 188.281H301.406L283.219 239H276.609L258.234 188.281H267.094L279.984 227.234ZM340.312 239C339.812 238 339.406 236.219 339.094 233.656C335.062 237.844 330.25 239.938 324.656 239.938C319.656 239.938 315.547 238.531 312.328 235.719C309.141 232.875 307.547 229.281 307.547 224.938C307.547 219.656 309.547 215.562 313.547 212.656C317.578 209.719 323.234 208.25 330.516 208.25H338.953V204.266C338.953 201.234 338.047 198.828 336.234 197.047C334.422 195.234 331.75 194.328 328.219 194.328C325.125 194.328 322.531 195.109 320.438 196.672C318.344 198.234 317.297 200.125 317.297 202.344H308.578C308.578 199.812 309.469 197.375 311.25 195.031C313.062 192.656 315.5 190.781 318.562 189.406C321.656 188.031 325.047 187.344 328.734 187.344C334.578 187.344 339.156 188.812 342.469 191.75C345.781 194.656 347.5 198.672 347.625 203.797V227.141C347.625 231.797 348.219 235.5 349.406 238.25V239H340.312ZM325.922 232.391C328.641 232.391 331.219 231.688 333.656 230.281C336.094 228.875 337.859 227.047 338.953 224.797V214.391H332.156C321.531 214.391 316.219 217.5 316.219 223.719C316.219 226.438 317.125 228.562 318.938 230.094C320.75 231.625 323.078 232.391 325.922 232.391Z" fill="#FAFAFA"/>
<path d="M110.984 151.5H107.911C106.064 151.5 104.566 152.998 104.566 154.845V160.757L105.341 161.511H113.716L114.329 160.757V154.845C114.329 152.998 112.831 151.5 110.984 151.5V151.5Z" fill="#F9F6F9"/>
<path d="M109.589 154.845C109.589 153.337 110.588 152.063 111.959 151.645C111.651 151.551 111.323 151.5 110.984 151.5H107.911C106.064 151.5 104.566 152.998 104.566 154.845V160.757L105.341 161.511H110.365L109.589 160.757V154.845Z" fill="#CBE2FF"/>
<path d="M114.224 235.457H104.412L104.118 235.807L106.972 245.744C107.686 248.231 111.209 248.231 111.923 245.744L114.777 235.807L114.224 235.457Z" fill="#8479C2"/>
<path d="M109.141 235.807L109.436 235.458H104.412L104.118 235.807L106.972 245.745C107.686 248.231 111.209 248.231 111.923 245.745L111.959 245.62L109.141 235.807Z" fill="#6E60B8"/>
<path d="M115.153 200.411H103.607L103.435 200.762V234.444C103.435 235.387 104.2 236.152 105.144 236.152H113.751C114.695 236.152 115.46 235.387 115.46 234.444V200.762L115.153 200.411Z" fill="#F9F6F9"/>
<path d="M108.459 234.444V200.762L108.63 200.411H103.607L103.435 200.762V234.444C103.435 235.387 104.2 236.152 105.144 236.152H110.167C109.224 236.152 108.459 235.387 108.459 234.444Z" fill="#CBE2FF"/>
<path d="M91.8627 234.801H25V242.326C25 245.722 27.7783 248.5 31.1738 248.5H91.5803C92.4715 248.5 93.2008 247.771 93.2008 246.879V236.152L91.8627 234.801Z" fill="#F9F6F9"/>
<path d="M35.525 242.326V234.801H25V242.326C25 245.722 27.7783 248.5 31.1738 248.5H41.6988C38.3033 248.5 35.525 245.722 35.525 242.326V242.326Z" fill="#CBE2FF"/>
<path d="M90.8637 151.5H35.525L33.4883 153.83V236.152H93.2008V153.837C93.2008 152.546 92.1545 151.5 90.8637 151.5V151.5Z" fill="#FF636E"/>
<path d="M44.5098 151.5H35.525L33.4883 153.83V236.152H44.5098V151.5Z" fill="#FF4654"/>
<path d="M114.836 160.757H104.059C102.877 160.757 101.919 161.715 101.919 162.897V198.715C101.919 199.897 102.877 200.855 104.059 200.855H114.836C116.018 200.855 116.976 199.897 116.976 198.715V162.897C116.976 161.715 116.018 160.757 114.836 160.757V160.757Z" fill="#8479C2"/>
<path d="M106.943 198.715V162.897C106.943 161.715 107.901 160.757 109.082 160.757H104.059C102.878 160.757 101.92 161.715 101.92 162.897V198.715C101.92 199.897 102.877 200.855 104.059 200.855H109.082C107.901 200.855 106.943 199.897 106.943 198.715Z" fill="#6E60B8"/>
<path d="M123.513 201.487C122.692 201.487 122.027 200.821 122.027 200V169.178H100.454C99.6324 169.178 98.967 168.512 98.967 167.691C98.967 166.871 99.6326 166.205 100.454 166.205H123.513C124.335 166.205 125 166.871 125 167.691V200C125 200.821 124.334 201.487 123.513 201.487Z" fill="#9790CC"/>
<path d="M35.525 151.5H31.1738C27.7783 151.5 25 154.278 25 157.674V242.326C25 238.93 27.7783 236.152 31.1738 236.152H35.525V151.5Z" fill="#FF7F87"/>
<path d="M30.2625 157.674C30.2625 154.588 32.5576 152.012 35.525 151.568V151.5H31.1738C27.7783 151.5 25 154.278 25 157.674V242.326C25 239.24 27.2949 236.664 30.2625 236.221V157.674Z" fill="#FF636E"/>
<path d="M79.1313 165.86H46.69C45.3818 165.86 44.3115 166.93 44.3115 168.238V184.096C44.3115 185.404 45.3818 186.474 46.69 186.474H79.1313L79.8211 185.594V166.714L79.1313 165.86Z" fill="#FF9BA1"/>
<path d="M52.9951 184.096V168.238C52.9951 166.93 54.0654 165.86 55.3736 165.86H46.6899C45.3817 165.86 44.3113 166.93 44.3113 168.238V184.096C44.3113 185.404 45.3817 186.474 46.6899 186.474H55.3736C54.0656 186.474 52.9951 185.404 52.9951 184.096Z" fill="#FF7F87"/>
<path d="M79.1312 151.5H84.9455V248.5H79.1312V151.5Z" fill="#FFE07D"/>
<path d="M79.1312 236.152H84.9455V248.5H79.1312V236.152Z" fill="#FFC250"/>
<path d="M66.3086 304.367H49.8555V350H43.1406V304.367H26.7227V298.812H66.3086V304.367ZM79.3867 316.566C82.2695 313.027 86.0195 311.258 90.6367 311.258C98.6758 311.258 102.73 315.793 102.801 324.863V350H96.2969V324.828C96.2734 322.086 95.6406 320.059 94.3984 318.746C93.1797 317.434 91.2695 316.777 88.668 316.777C86.5586 316.777 84.707 317.34 83.1133 318.465C81.5195 319.59 80.2773 321.066 79.3867 322.895V350H72.8828V296H79.3867V316.566ZM128.324 350.703C123.168 350.703 118.973 349.016 115.738 345.641C112.504 342.242 110.887 337.707 110.887 332.035V330.84C110.887 327.066 111.602 323.703 113.031 320.75C114.484 317.773 116.5 315.453 119.078 313.789C121.68 312.102 124.492 311.258 127.516 311.258C132.461 311.258 136.305 312.887 139.047 316.145C141.789 319.402 143.16 324.066 143.16 330.137V332.844H117.391C117.484 336.594 118.574 339.629 120.66 341.949C122.77 344.246 125.441 345.395 128.676 345.395C130.973 345.395 132.918 344.926 134.512 343.988C136.105 343.051 137.5 341.809 138.695 340.262L142.668 343.355C139.48 348.254 134.699 350.703 128.324 350.703ZM127.516 316.602C124.891 316.602 122.688 317.562 120.906 319.484C119.125 321.383 118.023 324.055 117.602 327.5H136.656V327.008C136.469 323.703 135.578 321.148 133.984 319.344C132.391 317.516 130.234 316.602 127.516 316.602ZM205.633 298.812V333.617C205.609 338.445 204.086 342.395 201.062 345.465C198.062 348.535 193.984 350.258 188.828 350.633L187.035 350.703C181.434 350.703 176.969 349.191 173.641 346.168C170.312 343.145 168.625 338.984 168.578 333.688V298.812H175.258V333.477C175.258 337.18 176.277 340.062 178.316 342.125C180.355 344.164 183.262 345.184 187.035 345.184C190.855 345.184 193.773 344.164 195.789 342.125C197.828 340.086 198.848 337.215 198.848 333.512V298.812H205.633ZM222.332 350H215.828V296H222.332V350ZM241.598 302.75V311.961H248.699V316.988H241.598V340.578C241.598 342.102 241.914 343.25 242.547 344.023C243.18 344.773 244.258 345.148 245.781 345.148C246.531 345.148 247.562 345.008 248.875 344.727V350C247.164 350.469 245.5 350.703 243.883 350.703C240.977 350.703 238.785 349.824 237.309 348.066C235.832 346.309 235.094 343.812 235.094 340.578V316.988H228.168V311.961H235.094V302.75H241.598ZM263.395 350H256.891V311.961H263.395V350ZM256.363 301.871C256.363 300.816 256.68 299.926 257.312 299.199C257.969 298.473 258.93 298.109 260.195 298.109C261.461 298.109 262.422 298.473 263.078 299.199C263.734 299.926 264.062 300.816 264.062 301.871C264.062 302.926 263.734 303.805 263.078 304.508C262.422 305.211 261.461 305.562 260.195 305.562C258.93 305.562 257.969 305.211 257.312 304.508C256.68 303.805 256.363 302.926 256.363 301.871ZM279.953 311.961L280.129 316.18C282.918 312.898 286.68 311.258 291.414 311.258C296.734 311.258 300.355 313.297 302.277 317.375C303.543 315.547 305.184 314.07 307.199 312.945C309.238 311.82 311.641 311.258 314.406 311.258C322.75 311.258 326.992 315.676 327.133 324.512V350H320.629V324.898C320.629 322.18 320.008 320.152 318.766 318.816C317.523 317.457 315.438 316.777 312.508 316.777C310.094 316.777 308.09 317.504 306.496 318.957C304.902 320.387 303.977 322.32 303.719 324.758V350H297.18V325.074C297.18 319.543 294.473 316.777 289.059 316.777C284.793 316.777 281.875 318.594 280.305 322.227V350H273.801V311.961H279.953ZM360.461 350C360.086 349.25 359.781 347.914 359.547 345.992C356.523 349.133 352.914 350.703 348.719 350.703C344.969 350.703 341.887 349.648 339.473 347.539C337.082 345.406 335.887 342.711 335.887 339.453C335.887 335.492 337.387 332.422 340.387 330.242C343.41 328.039 347.652 326.938 353.113 326.938H359.441V323.949C359.441 321.676 358.762 319.871 357.402 318.535C356.043 317.176 354.039 316.496 351.391 316.496C349.07 316.496 347.125 317.082 345.555 318.254C343.984 319.426 343.199 320.844 343.199 322.508H336.66C336.66 320.609 337.328 318.781 338.664 317.023C340.023 315.242 341.852 313.836 344.148 312.805C346.469 311.773 349.012 311.258 351.777 311.258C356.16 311.258 359.594 312.359 362.078 314.562C364.562 316.742 365.852 319.754 365.945 323.598V341.105C365.945 344.598 366.391 347.375 367.281 349.438V350H360.461ZM349.668 345.043C351.707 345.043 353.641 344.516 355.469 343.461C357.297 342.406 358.621 341.035 359.441 339.348V331.543H354.344C346.375 331.543 342.391 333.875 342.391 338.539C342.391 340.578 343.07 342.172 344.43 343.32C345.789 344.469 347.535 345.043 349.668 345.043ZM384.965 302.75V311.961H392.066V316.988H384.965V340.578C384.965 342.102 385.281 343.25 385.914 344.023C386.547 344.773 387.625 345.148 389.148 345.148C389.898 345.148 390.93 345.008 392.242 344.727V350C390.531 350.469 388.867 350.703 387.25 350.703C384.344 350.703 382.152 349.824 380.676 348.066C379.199 346.309 378.461 343.812 378.461 340.578V316.988H371.535V311.961H378.461V302.75H384.965ZM415.48 350.703C410.324 350.703 406.129 349.016 402.895 345.641C399.66 342.242 398.043 337.707 398.043 332.035V330.84C398.043 327.066 398.758 323.703 400.188 320.75C401.641 317.773 403.656 315.453 406.234 313.789C408.836 312.102 411.648 311.258 414.672 311.258C419.617 311.258 423.461 312.887 426.203 316.145C428.945 319.402 430.316 324.066 430.316 330.137V332.844H404.547C404.641 336.594 405.73 339.629 407.816 341.949C409.926 344.246 412.598 345.395 415.832 345.395C418.129 345.395 420.074 344.926 421.668 343.988C423.262 343.051 424.656 341.809 425.852 340.262L429.824 343.355C426.637 348.254 421.855 350.703 415.48 350.703ZM414.672 316.602C412.047 316.602 409.844 317.562 408.062 319.484C406.281 321.383 405.18 324.055 404.758 327.5H423.812V327.008C423.625 323.703 422.734 321.148 421.141 319.344C419.547 317.516 417.391 316.602 414.672 316.602ZM52.3867 382.812H59.1719V419.059C59.1719 423.957 57.6953 427.789 54.7422 430.555C51.8125 433.32 47.8984 434.703 43 434.703C37.9141 434.703 33.9531 433.402 31.1172 430.801C28.2812 428.199 26.8633 424.555 26.8633 419.867H33.6133C33.6133 422.797 34.4102 425.082 36.0039 426.723C37.6211 428.363 39.9531 429.184 43 429.184C45.7891 429.184 48.0391 428.305 49.75 426.547C51.4844 424.789 52.3633 422.328 52.3867 419.164V382.812ZM67.9258 414.629C67.9258 410.902 68.6523 407.551 70.1055 404.574C71.582 401.598 73.6211 399.301 76.2227 397.684C78.8477 396.066 81.8359 395.258 85.1875 395.258C90.3672 395.258 94.5508 397.051 97.7383 400.637C100.949 404.223 102.555 408.992 102.555 414.945V415.402C102.555 419.105 101.84 422.434 100.41 425.387C99.0039 428.316 96.9766 430.602 94.3281 432.242C91.7031 433.883 88.6797 434.703 85.2578 434.703C80.1016 434.703 75.918 432.91 72.707 429.324C69.5195 425.738 67.9258 420.992 67.9258 415.086V414.629ZM74.4648 415.402C74.4648 419.621 75.4375 423.008 77.3828 425.562C79.3516 428.117 81.9766 429.395 85.2578 429.395C88.5625 429.395 91.1875 428.105 93.1328 425.527C95.0781 422.926 96.0508 419.293 96.0508 414.629C96.0508 410.457 95.0547 407.082 93.0625 404.504C91.0938 401.902 88.4688 400.602 85.1875 400.602C81.9766 400.602 79.3867 401.879 77.418 404.434C75.4492 406.988 74.4648 410.645 74.4648 415.402ZM134.195 430.238C131.664 433.215 127.949 434.703 123.051 434.703C118.996 434.703 115.902 433.531 113.77 431.188C111.66 428.82 110.594 425.328 110.57 420.711V395.961H117.074V420.535C117.074 426.301 119.418 429.184 124.105 429.184C129.074 429.184 132.379 427.332 134.02 423.629V395.961H140.523V434H134.336L134.195 430.238ZM168.824 401.797C167.84 401.633 166.773 401.551 165.625 401.551C161.359 401.551 158.465 403.367 156.941 407V434H150.438V395.961H156.766L156.871 400.355C159.004 396.957 162.027 395.258 165.941 395.258C167.207 395.258 168.168 395.422 168.824 395.75V401.797ZM180.988 395.961L181.199 400.742C184.105 397.086 187.902 395.258 192.59 395.258C200.629 395.258 204.684 399.793 204.754 408.863V434H198.25V408.828C198.227 406.086 197.594 404.059 196.352 402.746C195.133 401.434 193.223 400.777 190.621 400.777C188.512 400.777 186.66 401.34 185.066 402.465C183.473 403.59 182.23 405.066 181.34 406.895V434H174.836V395.961H180.988ZM238.047 434C237.672 433.25 237.367 431.914 237.133 429.992C234.109 433.133 230.5 434.703 226.305 434.703C222.555 434.703 219.473 433.648 217.059 431.539C214.668 429.406 213.473 426.711 213.473 423.453C213.473 419.492 214.973 416.422 217.973 414.242C220.996 412.039 225.238 410.938 230.699 410.938H237.027V407.949C237.027 405.676 236.348 403.871 234.988 402.535C233.629 401.176 231.625 400.496 228.977 400.496C226.656 400.496 224.711 401.082 223.141 402.254C221.57 403.426 220.785 404.844 220.785 406.508H214.246C214.246 404.609 214.914 402.781 216.25 401.023C217.609 399.242 219.438 397.836 221.734 396.805C224.055 395.773 226.598 395.258 229.363 395.258C233.746 395.258 237.18 396.359 239.664 398.562C242.148 400.742 243.438 403.754 243.531 407.598V425.105C243.531 428.598 243.977 431.375 244.867 433.438V434H238.047ZM227.254 429.043C229.293 429.043 231.227 428.516 233.055 427.461C234.883 426.406 236.207 425.035 237.027 423.348V415.543H231.93C223.961 415.543 219.977 417.875 219.977 422.539C219.977 424.578 220.656 426.172 222.016 427.32C223.375 428.469 225.121 429.043 227.254 429.043ZM260.793 434H254.289V380H260.793V434ZM318.379 420.641H296.934L292.117 434H285.156L304.703 382.812H310.609L330.191 434H323.266L318.379 420.641ZM298.973 415.086H316.375L307.656 391.145L298.973 415.086ZM368.195 415.402C368.195 421.191 366.871 425.855 364.223 429.395C361.574 432.934 357.988 434.703 353.465 434.703C348.848 434.703 345.215 433.238 342.566 430.309V448.625H336.062V395.961H342.004L342.32 400.18C344.969 396.898 348.648 395.258 353.359 395.258C357.93 395.258 361.539 396.98 364.188 400.426C366.859 403.871 368.195 408.664 368.195 414.805V415.402ZM361.691 414.664C361.691 410.375 360.777 406.988 358.949 404.504C357.121 402.02 354.613 400.777 351.426 400.777C347.488 400.777 344.535 402.523 342.566 406.016V424.191C344.512 427.66 347.488 429.395 351.496 429.395C354.613 429.395 357.086 428.164 358.914 425.703C360.766 423.219 361.691 419.539 361.691 414.664ZM408.625 415.402C408.625 421.191 407.301 425.855 404.652 429.395C402.004 432.934 398.418 434.703 393.895 434.703C389.277 434.703 385.645 433.238 382.996 430.309V448.625H376.492V395.961H382.434L382.75 400.18C385.398 396.898 389.078 395.258 393.789 395.258C398.359 395.258 401.969 396.98 404.617 400.426C407.289 403.871 408.625 408.664 408.625 414.805V415.402ZM402.121 414.664C402.121 410.375 401.207 406.988 399.379 404.504C397.551 402.02 395.043 400.777 391.855 400.777C387.918 400.777 384.965 402.523 382.996 406.016V424.191C384.941 427.66 387.918 429.395 391.926 429.395C395.043 429.395 397.516 428.164 399.344 425.703C401.195 423.219 402.121 419.539 402.121 414.664Z" fill="#FAFAFA"/>
<circle cx="475" cy="55" r="20" fill="#4B5EB2" stroke="#5265B7" stroke-width="10"/>
<circle cx="342.5" cy="67.5" r="32.5" fill="#4B5EB2" stroke="#5265B7" stroke-width="10"/>
<circle cx="208.5" cy="92.5" r="7.5" fill="#4B5EB2" stroke="#5265B7" stroke-width="10"/>
<circle cx="335.5" cy="157.5" r="7.5" fill="#4B5EB2" stroke="#5265B7" stroke-width="10"/>
<rect x="243" y="106" width="40" height="40" rx="5" fill="#4B5EB2" stroke="#5265B7" stroke-width="10"/>
<path d="M627.33 32.5L653.311 77.5C655.235 80.8333 652.83 85 648.981 85H597.019C593.17 85 590.765 80.8333 592.689 77.5L618.67 32.5C620.594 29.1667 625.406 29.1667 627.33 32.5Z" fill="#4B5EB2" stroke="#5265B7" stroke-width="10"/>
<path d="M1181.84 69.5491C1188.14 69.5491 1193.73 65.4905 1195.67 59.4959C1197.04 55.3048 1202.96 55.3048 1204.33 59.4959C1206.27 65.4905 1211.86 69.5491 1218.16 69.5491C1222.57 69.5491 1224.4 75.1883 1220.84 77.7786C1215.74 81.4835 1213.6 88.0505 1215.55 94.0451C1216.91 98.2363 1212.12 101.721 1208.55 99.1312C1203.45 95.4263 1196.55 95.4263 1191.45 99.1312C1187.88 101.721 1183.09 98.2363 1184.45 94.0451C1186.4 88.0505 1184.26 81.4835 1179.16 77.7786C1175.6 75.1883 1177.43 69.5491 1181.84 69.5491Z" fill="#4B5EB2" stroke="#5265B7" stroke-width="10"/>
<path d="M909.5 34.1803L912.041 42.002C913.38 46.1223 917.22 48.9119 921.552 48.9119L929.776 48.9119L923.123 53.7459C919.618 56.2924 918.151 60.806 919.49 64.9263L922.031 72.748L915.378 67.9139C911.873 65.3675 907.127 65.3675 903.622 67.9139L896.969 72.748L899.51 64.9263C900.849 60.806 899.382 56.2924 895.877 53.7459L889.224 48.9119L897.448 48.9119C901.78 48.9119 905.62 46.1223 906.959 42.002L909.5 34.1803Z" fill="#4B5EB2" stroke="#5265B7" stroke-width="10"/>
<path d="M1054 106.173L1124.71 35.4621" stroke="#5265B7" stroke-width="10"/>
<path d="M1033.36 87.6566L1083.36 1.05408" stroke="#5265B7" stroke-width="10"/>
<path d="M1071.05 125.355L1157.66 75.3553" stroke="#5265B7" stroke-width="10"/>
<rect x="735" y="22" width="65" height="65" fill="#4B5EB2" stroke="#5265B7" stroke-width="10"/>
<circle cx="1116.5" cy="212.5" r="32.5" fill="#4B5EB2" stroke="#5265B7" stroke-width="10"/>
<circle cx="1205" cy="280" r="20" fill="#4B5EB2" stroke="#5265B7" stroke-width="10"/>
</g>
<defs>
<clipPath id="clip0">
<rect width="1280" height="720" fill="white"/>
</clipPath>
<clipPath id="clip1">
<rect width="20" height="20" fill="white" transform="translate(571.167 115)"/>
</clipPath>
</defs>
</svg>
